<svg width="171" height="25" viewBox="0 0 171 25" fill="none" xmlns="http://www.w3.org/2000/svg">
    <path d="M41.2379 0H46.9259V19.5055H63.9898V24.7253H41.2379V0Z" fill="#fff"></path>
    <path d="M68.2557 0H93.8517V5.21978H83.8977V24.7253H78.2097V5.21978H68.2557V0Z" fill="#fff"></path>
    <path fillRule="evenodd" clipRule="evenodd" d="M128.864 2.4533C127.142 0.910714 124.661 0 121.605 0H106.65V24.7253H112.338V16.1415H121.709L126.629 24.7253H133.668L127.515 14.8022C129.979 13.3805 131.444 11.0453 131.444 8.24176C131.444 6.08516 130.58 3.98901 128.864 2.4533V2.4533ZM112.338 10.989V5.21978H121.481C123.148 5.21978 124.136 5.68956 124.713 6.22939C125.315 6.79121 125.602 7.54808 125.602 8.28983C125.602 9.00275 125.335 9.64011 124.784 10.103C124.235 10.5632 123.24 10.989 121.48 10.989H112.338Z" fill="#fff"></path>
    <path d="M142.199 24.7253H148.243L156.419 6.86813L164.596 24.7253H170.639L159.263 0H153.575L142.199 24.7253Z" fill="#fff"></path>
    <path d="M0 11.1978V0H5.68798V11.2843C5.7022 14.1332 6.54829 16.0495 7.94895 17.3791C9.3809 18.7253 11.2949 19.5055 14.22 19.5055C17.1493 19.5055 19.086 18.7225 20.5151 17.3777C21.903 16.0591 22.7519 14.1223 22.7519 11.1964V0H28.4399V11.1978C28.4399 15.217 27.2198 18.7184 24.4868 21.3104C21.7978 23.8462 18.3324 25 14.22 25C10.1033 25 6.66347 23.8407 3.97448 21.3104C1.25704 18.7321 0.0184859 15.1703 0 11.1978Z" fill="#fff"></path>
</svg>
