<svg width="32" height="32" viewBox="0 0 32 32" fill="none" xmlns="http://www.w3.org/2000/svg">
<path d="M0 16C0 10.0185 0 7.02769 1.28616 4.8C2.12873 3.34062 3.34062 2.12873 4.8 1.28616C7.02769 0 10.0185 0 16 0C21.9815 0 24.9723 0 27.2 1.28616C28.6594 2.12873 29.8713 3.34062 30.7138 4.8C32 7.02769 32 10.0185 32 16C32 21.9815 32 24.9723 30.7138 27.2C29.8713 28.6594 28.6594 29.8713 27.2 30.7138C24.9723 32 21.9815 32 16 32C10.0185 32 7.02769 32 4.8 30.7138C3.34062 29.8713 2.12873 28.6594 1.28616 27.2C0 24.9723 0 21.9815 0 16Z" fill="white"/>
<path fill-rule="evenodd" clip-rule="evenodd" d="M16 8H20H24V12.0055H20H16H12V16.011V16.2678V19.9932V20.0165V23.9987H8V20.0165V19.9932V16.2678V16.011V12.0055V8H12H16ZM20.0002 19.9945H16.0236V16.0123H23.9979V20.1345C23.9979 21.1594 23.5915 22.1421 22.8681 22.867C22.1448 23.5918 21.1635 23.9994 20.1401 24H20.0002V19.9945Z" fill="#6851FF"/>
</svg>
