<svg width="32" height="32" viewBox="0 0 32 32" fill="none" xmlns="http://www.w3.org/2000/svg">
<path d="M0 16C0 10.0185 0 7.02769 1.28616 4.8C2.12873 3.34062 3.34062 2.12873 4.8 1.28616C7.02769 0 10.0185 0 16 0C21.9815 0 24.9723 0 27.2 1.28616C28.6594 2.12873 29.8713 3.34062 30.7138 4.8C32 7.02769 32 10.0185 32 16C32 21.9815 32 24.9723 30.7138 27.2C29.8713 28.6594 28.6594 29.8713 27.2 30.7138C24.9723 32 21.9815 32 16 32C10.0185 32 7.02769 32 4.8 30.7138C3.34062 29.8713 2.12873 28.6594 1.28616 27.2C0 24.9723 0 21.9815 0 16Z" fill="white"/>
<g clip-path="url(#clip0)">
<path d="M8.23645 17.7991L8.81671 17.549L16.0002 14.4524L23.7639 17.7991L20.8467 23.7708L13.7152 24.7711L8.35325 19.0326L8.23645 17.7991Z" fill="#133444"/>
<path d="M22.1489 14.1165C20.8669 12.5856 19.0508 11.5895 17.0619 11.3262C17.0194 11.3202 16.9769 11.315 16.9345 11.3104C16.3136 11.2388 15.6865 11.2388 15.0657 11.3104C15.0233 11.3153 14.9808 11.3206 14.9383 11.3262C12.9494 11.5895 11.1333 12.5856 9.85131 14.1165L9.52853 14.6471L8.99074 15.5295L8.59735 16.1776C8.58992 16.1949 8.58248 16.2128 8.57558 16.2302L8.5708 16.2423L9.43881 16.7514L14.9388 19.9776L16.0006 20.6004V12.8893L14.9388 13.3673V12.2127L16.0006 11.7342L17.0624 12.2127L22.4722 14.6492L22.1489 14.1165Z" fill="#C42370"/>
<path d="M23.9999 19.7182C23.9999 22.2863 22.7694 24.6891 20.8613 26.2379C20.1111 26.8504 19.2539 27.321 18.3322 27.6262C17.5799 27.8738 16.7925 27.9999 16 28C11.5819 28 8 24.0994 8 19.7182C7.99946 19.0714 8.0788 18.4269 8.23625 17.7992L16 22.3536L23.7637 17.7992C23.9212 18.4269 24.0005 19.0714 23.9999 19.7182Z" fill="#1C4D6B"/>
<path d="M15.0654 11.312L15.9997 11.7327L14.938 12.2112V11.2546L15.0654 11.312Z" fill="black"/>
<path d="M14.938 13.3674L15.9997 12.8894V20.6037L14.938 19.9809V13.3674Z" fill="black"/>
<path d="M16 12.8894V20.6037L23.4394 16.2399L16 12.8894Z" fill="#1D4259"/>
<path d="M16 4V12.8894L23.4394 16.2398L16 4Z" fill="#4B6B9A"/>
<path d="M15.9998 12.8894V20.6037L14.938 19.9809L8.56998 16.243L8.56042 16.2372L8.57476 16.2309C8.58166 16.2135 8.58909 16.1956 8.59653 16.1782L9.52718 14.6467L14.938 12.2129V13.3711L15.9998 12.8894Z" fill="#343535"/>
<path d="M15.9998 12.8894V20.6037L14.938 19.9809L8.56998 16.2456L8.56042 16.2399L8.57476 16.2335L14.938 13.3674L15.9998 12.8894Z" fill="#3E5578"/>
<path d="M15.9998 4V12.8894L8.56042 16.2398L15.9998 4Z" fill="#6DB2D8"/>
<path d="M12.9906 27.3671C13.1016 27.4155 13.2141 27.4613 13.3272 27.5045C13.2118 27.4613 13.0996 27.4155 12.9906 27.3671Z" fill="#335F8A"/>
<path d="M13.3245 27.5046C13.4381 27.5478 13.5522 27.5883 13.6679 27.6262C13.5522 27.5887 13.4377 27.5482 13.3245 27.5046Z" fill="#335F8A"/>
<path d="M13.9635 27.7168C14.0517 27.7415 14.1403 27.7652 14.229 27.7868C14.1401 27.7651 14.0517 27.7417 13.9635 27.7168Z" fill="#335F8A"/>
<path d="M8.23625 17.7992L16 22.3536C15.8963 23.0467 15.7097 23.725 15.4442 24.3742C14.823 25.8631 13.568 27.4378 11.1397 26.24C9.23061 24.6901 8 22.2863 8 19.7182C7.99946 19.0714 8.0788 18.4269 8.23625 17.7992Z" fill="#6DB2D8"/>
<path d="M20.8607 26.2383L20.8416 26.2537C20.8012 26.2863 20.7609 26.3184 20.72 26.35L20.7094 26.3584C20.6652 26.3935 20.6206 26.4272 20.5756 26.4595C20.5273 26.4953 20.4784 26.5311 20.4291 26.5648C20.3797 26.5985 20.3303 26.6338 20.2804 26.6675C20.2306 26.7011 20.1923 26.7264 20.1483 26.7548L20.1238 26.7706C20.0771 26.8006 20.0304 26.8301 19.9837 26.8586C19.9781 26.8625 19.9723 26.866 19.9662 26.8691C19.9179 26.8991 19.8695 26.9281 19.8207 26.9559C19.7718 26.9838 19.7145 27.0165 19.6614 27.0454C19.6083 27.0744 19.5552 27.1023 19.5022 27.1297L19.4963 27.1329C19.4432 27.1602 19.3901 27.1855 19.3371 27.2129C19.2839 27.2402 19.2309 27.2655 19.1735 27.2913C19.1162 27.3171 19.0631 27.3439 19.0079 27.3661C18.897 27.4145 18.7844 27.4603 18.6713 27.5035C18.5582 27.5467 18.4436 27.5872 18.3278 27.6251C18.2816 27.6404 18.2355 27.6551 18.1887 27.6693C18.142 27.6835 18.0826 27.7009 18.0321 27.7156C17.944 27.7404 17.8554 27.7641 17.7667 27.7857C17.7332 27.7941 17.6992 27.802 17.6653 27.8093L17.6085 27.8225C17.5612 27.833 17.514 27.843 17.4662 27.8525C17.4184 27.862 17.3791 27.8699 17.335 27.8778C17.291 27.8857 17.2549 27.8925 17.2146 27.8988C17.1742 27.9052 17.1254 27.9131 17.0807 27.9194C17.059 27.923 17.0372 27.9262 17.0149 27.9289L16.9146 27.942L16.8589 27.9489C16.8222 27.9536 16.7851 27.9573 16.7479 27.961C16.7022 27.9657 16.6571 27.9699 16.6115 27.9736C16.5759 27.9762 16.5403 27.9794 16.5053 27.9815C16.4702 27.9836 16.4437 27.9857 16.4124 27.9868H16.4081C16.372 27.9868 16.3359 27.991 16.302 27.9921C16.252 27.9921 16.2016 27.9957 16.1512 27.9967C16.1007 27.9978 16.0503 27.9967 15.9994 27.9967C15.9484 27.9967 15.8979 27.9967 15.8475 27.9967C15.7971 27.9967 15.7467 27.9967 15.6967 27.9921C15.6601 27.9921 15.624 27.9889 15.5879 27.9868H15.5837C15.5523 27.9868 15.5215 27.9836 15.4908 27.9815C15.4599 27.9794 15.4196 27.9762 15.3846 27.9736C15.3389 27.9699 15.2938 27.9657 15.2482 27.961C15.211 27.9573 15.1738 27.9536 15.1372 27.9489L15.0841 27.942C15.0507 27.9383 15.0172 27.9336 14.9837 27.9289C14.9614 27.9289 14.9397 27.923 14.9179 27.9194C14.873 27.9131 14.8284 27.9062 14.7842 27.8988C14.7438 27.8925 14.7034 27.8852 14.6636 27.8778C14.6238 27.8704 14.576 27.8615 14.5325 27.8525C14.489 27.8436 14.4374 27.833 14.3902 27.8225L14.3334 27.8093C14.2994 27.802 14.2654 27.7941 14.232 27.7857C14.1428 27.7641 14.0541 27.7404 13.9666 27.7156L13.8073 27.6693C13.7606 27.6551 13.7144 27.6404 13.6682 27.6251C13.5525 27.5872 13.4383 27.5467 13.3247 27.5035C13.2111 27.4603 13.097 27.4156 12.9908 27.3671C12.9377 27.3429 12.8804 27.3177 12.8251 27.2924C12.7699 27.2671 12.7158 27.2397 12.6616 27.2139C12.6075 27.1881 12.5555 27.1613 12.5024 27.1339L12.4965 27.1307C12.4434 27.1034 12.3903 27.0749 12.3373 27.0465C12.2842 27.0181 12.2311 26.9875 12.178 26.957C12.1249 26.9265 12.083 26.9012 12.0352 26.8701L12.0177 26.8596C11.9709 26.8311 11.9242 26.8017 11.8775 26.7717L11.8531 26.7559C11.809 26.7275 11.7644 26.698 11.7209 26.6685C11.6774 26.639 11.6211 26.6006 11.5722 26.5658C11.5234 26.5311 11.474 26.4953 11.4257 26.4605C11.3774 26.4258 11.336 26.3937 11.2919 26.3595L11.2813 26.351C11.2404 26.3195 11.2001 26.2874 11.1597 26.2547L11.1406 26.2394C13.5689 27.4371 14.8239 25.8625 15.4451 24.3737C15.7106 23.7249 15.8971 23.0471 16.001 22.3546C16.1045 23.0473 16.2909 23.7252 16.5563 24.3741C17.1774 25.8614 18.4324 27.4361 20.8607 26.2383Z" fill="#529BBA"/>
<path d="M17.7687 27.7868C17.8579 27.7652 17.9465 27.7415 18.0341 27.7168C17.9478 27.7421 17.8593 27.7654 17.7687 27.7868Z" fill="#335F8A"/>
<path d="M18.3319 27.6262C18.4476 27.5883 18.5618 27.5478 18.6754 27.5046C18.5625 27.5482 18.448 27.5887 18.3319 27.6262Z" fill="#335F8A"/>
<path d="M18.6755 27.5045C18.7886 27.4613 18.9011 27.4155 19.0121 27.3671C18.9014 27.4155 18.7891 27.4613 18.6755 27.5045Z" fill="#335F8A"/>
<path d="M24 19.7182C24 22.2863 22.7689 24.6896 20.8603 26.2384C18.432 27.4362 17.177 25.8615 16.5558 24.3726C16.2904 23.7239 16.1038 23.0462 16 22.3536L23.7637 17.7992C23.9212 18.4269 24.0005 19.0714 24 19.7182Z" fill="#4B6B9A"/>
</g>
<defs>
<clipPath id="clip0">
<rect width="16" height="24" fill="white" transform="translate(8 4)"/>
</clipPath>
</defs>
</svg>
