<svg width="22" height="24" viewBox="0 0 22 24" fill="none" xmlns="http://www.w3.org/2000/svg">
<path d="M11.1363 12.2168C11.6019 13.0292 10.5605 13.281 10.0719 13.3274C9.33128 13.3987 9.17798 12.9757 9.32264 12.4444C9.37007 12.2542 9.47544 12.083 9.62442 11.9542C9.77332 11.8253 9.95872 11.7449 10.1553 11.724C10.3491 11.7065 10.5438 11.7433 10.7174 11.8305C10.8909 11.9177 11.0361 12.0516 11.1363 12.2168Z" fill="white"/>
<path d="M14.0431 10.7148C13.5019 14.8173 20.7983 13.9636 20.6594 17.2288C21.3791 16.3016 21.6885 13.7824 19.5697 12.4857C17.6819 11.3296 15.222 11.9622 14.0431 10.7148Z" fill="white"/>
<path d="M18.2469 9.16775C18.1994 9.12424 18.1505 9.08145 18.103 9.03866C18.1512 9.08216 18.1994 9.12781 18.2469 9.16775Z" fill="white"/>
<path d="M19.9411 12.1562L19.9368 12.1498C19.8709 12.0286 19.7959 11.9124 19.7122 11.8025C19.4662 11.4722 19.1134 11.2356 18.7126 11.132C18.4458 11.0638 18.1729 11.0212 17.8979 11.0051C17.6193 10.9851 17.3351 10.9737 17.0479 10.9587C16.4721 10.9273 15.8827 10.8688 15.3069 10.7062C15.163 10.6656 15.019 10.6213 14.8801 10.5678C14.8082 10.5422 14.7412 10.5143 14.67 10.4844C14.5987 10.4544 14.526 10.4202 14.4541 10.3838C14.1834 10.2369 13.9326 10.0564 13.7077 9.84676C13.2644 9.43807 12.9161 8.97446 12.567 8.52512C12.238 8.07407 11.8848 7.64078 11.509 7.22704C11.1383 6.82175 10.7002 6.48256 10.2136 6.22423C9.70977 5.97276 9.16258 5.81788 8.60071 5.76776C9.1836 5.70504 9.77318 5.77631 10.3237 5.97602C10.8792 6.18975 11.3871 6.50937 11.8185 6.91678C12.1002 7.17858 12.3647 7.45805 12.6102 7.7534C14.4382 7.39678 15.9208 7.71346 17.0601 8.32827L17.086 8.34111C17.4487 8.53604 17.7885 8.76998 18.0994 9.03866C18.149 9.08145 18.198 9.12424 18.2433 9.16775C18.486 9.38871 18.7119 9.62715 18.9191 9.88099L18.935 9.90167C19.6079 10.7461 19.9404 11.6241 19.9411 12.1562Z" fill="white"/>
<path d="M8.69348 6.29836C9.15985 6.3654 9.63557 6.54942 9.94217 6.90033C10.2488 7.25124 10.3618 7.70775 10.4503 8.14212C10.5222 8.47876 10.5791 8.82183 10.713 9.14065C10.7777 9.29614 10.8727 9.43236 10.9519 9.57929C11.0174 9.70125 11.1369 9.81102 11.1829 9.94154C11.1912 9.9603 11.1942 9.98092 11.1919 10.0012C11.1895 10.0215 11.1816 10.0408 11.1693 10.0572C11.0066 10.2355 10.5676 10.0372 10.4021 9.95731C10.1159 9.81673 9.85962 9.62301 9.64709 9.38672C8.9828 8.65565 8.6395 7.60362 8.66037 6.6457C8.66498 6.52941 8.67606 6.41345 8.69348 6.29836Z" fill="white"/>
<path d="M16.4945 14.5413C15.4869 17.3279 20.057 19.1973 18.3449 22.0303C20.1017 21.3114 20.9358 19.1395 20.2067 17.4164C19.5691 15.9036 17.6835 15.3522 16.4945 14.5413Z" fill="white"/>
<path d="M10.4496 18.1859C10.7242 17.9808 11.0244 17.8118 11.3428 17.6831C11.6649 17.5553 11.999 17.4597 12.3403 17.3978C13.0175 17.2701 13.6876 17.2388 14.2504 17.0141C14.5285 16.9065 14.7843 16.7493 15.0054 16.5505C15.2193 16.3535 15.3831 16.1091 15.4832 15.8372C15.5859 15.5505 15.6275 15.2457 15.6056 14.9421C15.5802 14.616 15.5057 14.2956 15.3846 13.9914C15.6355 14.2499 15.8182 14.5658 15.9164 14.911C16.0148 15.2563 16.0256 15.6202 15.9482 15.9706C15.8601 16.3415 15.67 16.681 15.399 16.9513C15.1308 17.2132 14.8073 17.4129 14.4519 17.5362C14.1127 17.6541 13.7591 17.726 13.4004 17.7502C13.055 17.7787 12.721 17.7865 12.3928 17.8058C11.7293 17.8334 11.074 17.9616 10.4496 18.1859Z" fill="white"/>
<path d="M16.8967 23.0838C16.7953 23.1636 16.6938 23.2485 16.5822 23.3227C16.47 23.396 16.3524 23.4608 16.2303 23.5167C15.9762 23.6395 15.6969 23.7023 15.4142 23.7C14.6484 23.6857 14.1072 23.1208 13.7905 22.4825C13.5746 22.0474 13.4256 21.5774 13.1694 21.163C12.8031 20.5703 12.1762 20.0931 11.4421 20.1816C11.1427 20.2187 10.862 20.3521 10.6958 20.6095C10.2582 21.2821 10.8865 22.2243 11.6875 22.0909C11.7557 22.0807 11.8223 22.0625 11.8862 22.0367C11.9498 22.0098 12.0092 21.9741 12.0625 21.9304C12.1744 21.8381 12.2588 21.7173 12.3065 21.581C12.3591 21.4388 12.3708 21.285 12.3403 21.1366C12.3074 20.9816 12.2151 20.8453 12.0826 20.7565C12.2366 20.8279 12.3566 20.9557 12.4173 21.1131C12.4803 21.275 12.4965 21.4511 12.4641 21.6216C12.4326 21.7993 12.3536 21.9653 12.2352 22.1023C12.1723 22.1728 12.0996 22.2341 12.0193 22.2842C11.9397 22.3338 11.8544 22.3737 11.7653 22.4033C11.5845 22.4645 11.392 22.4843 11.2024 22.4611C10.9362 22.4235 10.6851 22.3156 10.4755 22.1487C10.228 21.9547 10.0437 21.7008 9.81989 21.4825C9.56331 21.2157 9.26053 20.9966 8.92601 20.8356C8.69528 20.7352 8.45389 20.661 8.20631 20.6145C8.0818 20.5888 7.95584 20.5703 7.8299 20.5546C7.77232 20.5489 7.4902 20.4869 7.45061 20.5232C7.8399 20.1681 8.26425 19.8526 8.7173 19.5818C9.18245 19.3082 9.68192 19.0965 10.2028 18.952C10.7428 18.8013 11.3077 18.7584 11.8646 18.8257C12.1512 18.8598 12.432 18.9318 12.6994 19.0397C12.9796 19.1506 13.2383 19.3089 13.4638 19.5076C13.6869 19.7159 13.8673 19.9652 13.9949 20.2415C14.1101 20.5002 14.196 20.7707 14.2511 21.0482C14.4152 21.8777 14.3548 23.1636 15.4509 23.3534C15.508 23.3643 15.5657 23.3724 15.6236 23.3776L15.8028 23.3819C15.926 23.3732 16.0484 23.3558 16.1691 23.3298C16.4192 23.2715 16.6629 23.1891 16.8967 23.0838Z" fill="white"/>
<path d="M9.54352 10.473C9.50358 10.625 9.43391 10.7678 9.33841 10.8931C9.16064 11.1217 8.92529 11.3001 8.65613 11.4102C8.41394 11.5136 8.15751 11.5804 7.89538 11.6085C7.83852 11.6156 7.77951 11.6199 7.72265 11.6241C7.55662 11.6304 7.39697 11.6892 7.26707 11.7918C7.13717 11.8945 7.04386 12.0357 7.00078 12.1947C6.98106 12.2738 6.9664 12.3541 6.95689 12.4351C6.93098 12.6448 6.92666 12.863 6.90363 13.1269C6.84723 13.576 6.71615 14.0127 6.5157 14.4193C6.25517 14.9628 5.96297 15.4007 6.03063 16.027C6.07525 16.4335 6.2854 16.706 6.56464 16.987C7.06843 17.4977 8.19623 17.7259 7.94432 18.9841C7.79246 19.7351 6.53585 20.5232 4.7697 20.7985C4.9453 20.7721 4.54443 20.1024 4.51924 20.0596C4.32996 19.7658 4.12269 19.489 3.97227 19.1702C3.67719 18.5518 3.54044 17.8365 3.66135 17.1589C3.78874 16.4456 4.32133 15.8993 4.76395 15.3544C5.29077 14.7061 5.8435 13.8566 5.96585 13.015C5.99463 12.811 6.01479 12.5556 6.06085 12.3017C6.10476 12.0204 6.19368 11.7479 6.32426 11.4943C6.41339 11.3281 6.53074 11.1782 6.67116 11.0514C6.74437 10.9841 6.79268 10.8944 6.80833 10.7966C6.82399 10.6989 6.8061 10.5987 6.75752 10.5122L3.94203 5.49385L7.98608 10.4395C8.03214 10.4967 8.09029 10.5433 8.15658 10.5758C8.22279 10.6084 8.29548 10.626 8.36939 10.6275C8.44331 10.6291 8.51665 10.6146 8.58423 10.5849C8.65181 10.5552 8.71197 10.5111 8.76048 10.4559C8.81173 10.3967 8.84073 10.3218 8.84267 10.2438C8.84469 10.1659 8.81943 10.0896 8.77128 10.0279C8.50715 9.69341 8.2279 9.35248 7.95729 9.01726L6.93961 7.76909L4.89708 5.27703L0.799805 0.300049L5.15906 5.05378L7.33329 7.43601L8.4179 8.62997C8.77776 9.03152 9.13761 9.42024 9.49746 9.84248L9.55648 9.9138L9.56943 10.0244C9.58692 10.1743 9.57821 10.3261 9.54352 10.473Z" fill="white"/>
<path d="M10.4762 22.1458C10.2808 21.9963 10.1069 21.8208 9.95944 21.6245C10.1176 21.8114 10.2904 21.9858 10.4762 22.1458Z" fill="white"/>
</svg>
